<?xml version="1.0" standalone="no"?>
<!DOCTYPE svg PUBLIC "-//W3C//DTD SVG 20010904//EN"
 "http://www.w3.org/TR/2001/REC-SVG-20010904/DTD/svg10.dtd">
<svg version="1.0" xmlns="http://www.w3.org/2000/svg"
 width="353.000000pt" height="268.000000pt" viewBox="0 0 353.000000 268.000000"
 preserveAspectRatio="xMidYMid meet">
<g transform="translate(0.000000,268.000000) scale(0.100000,-0.100000)"
fill="#1f4fd6" stroke="none">
<path d="M3015 2514 c-148 -51 -1610 -528 -1725 -564 -14 -4 -142 -46 -285
-93 -439 -145 -661 -216 -783 -253 -64 -20 -125 -43 -134 -51 -21 -19 -23 -62
-5 -85 6 -9 77 -39 157 -68 80 -29 237 -86 350 -127 113 -41 225 -82 250 -90
25 -9 49 -19 53 -23 5 -4 4 -90 -2 -191 -7 -101 -18 -292 -26 -424 -24 -381
-24 -364 4 -386 13 -10 33 -19 45 -19 12 0 130 90 296 226 151 124 328 269
392 321 l117 95 108 -59 c300 -166 595 -330 655 -364 74 -43 110 -49 135 -20
9 11 92 266 185 568 195 635 250 814 288 938 154 508 193 644 192 670 -1 32
-33 66 -61 64 -9 0 -101 -30 -206 -65z m-4 -521 c-61 -197 -133 -432 -161
-523 -85 -274 -246 -799 -275 -895 -15 -49 -30 -94 -35 -98 -4 -5 -34 6 -66
24 -195 108 -384 212 -632 349 l-282 155 28 24 c15 13 137 119 272 235 134
116 288 249 341 296 52 47 165 146 249 220 85 74 217 191 294 260 78 69 191
168 251 220 61 52 112 99 114 105 3 6 6 5 8 -2 3 -7 -45 -174 -106 -370z
m-306 279 c-16 -10 -138 -81 -270 -157 -132 -75 -303 -174 -380 -220 -77 -45
-241 -140 -365 -212 -124 -72 -335 -195 -470 -273 -135 -79 -252 -143 -260
-142 -11 0 -554 194 -640 228 -15 6 21 20 295 107 186 60 1211 396 1700 557
215 71 397 129 405 130 8 0 2 -8 -15 -18z m-120 -220 c-49 -46 -230 -205 -436
-382 -377 -327 -436 -378 -489 -425 -30 -28 -99 -88 -153 -134 -55 -47 -110
-103 -124 -125 -52 -84 -396 -587 -405 -592 -5 -3 -7 24 -3 68 5 63 15 221 41
605 l6 92 381 222 c210 122 522 304 692 404 375 221 518 304 525 305 3 0 -13
-17 -35 -38z m-1039 -1168 c35 -20 64 -37 64 -39 0 -2 -73 -62 -162 -133 -90
-72 -176 -142 -193 -156 -50 -42 -48 -30 8 47 55 74 174 255 196 295 6 12 14
22 17 22 3 0 35 -16 70 -36z"/>
</g>
</svg>
