<?xml version="1.0" standalone="no"?>
<!DOCTYPE svg PUBLIC "-//W3C//DTD SVG 20010904//EN"
 "http://www.w3.org/TR/2001/REC-SVG-20010904/DTD/svg10.dtd">
<svg version="1.0" xmlns="http://www.w3.org/2000/svg"
 width="423.000000pt" height="372.000000pt" viewBox="0 0 423.000000 372.000000"
 preserveAspectRatio="xMidYMid meet">
<g transform="translate(0.000000,372.000000) scale(0.100000,-0.100000)"
fill="#000000" stroke="none">
<path d="M4000 3580 c-30 -10 -253 -76 -495 -145 -649 -187 -717 -208 -729
-228 -16 -25 0 -36 173 -122 l154 -76 -6 -102 c-22 -349 -22 -334 2 -346 28
-15 29 -15 211 132 l155 126 40 -23 c22 -13 85 -47 140 -77 55 -29 114 -61
130 -71 35 -21 68 -23 82 -5 10 12 57 170 143 487 27 96 65 235 85 307 49 172
41 185 -85 143z m-215 -149 c-6 -6 -53 -34 -105 -64 -52 -30 -189 -109 -305
-176 l-210 -123 -115 58 -115 57 40 13 c22 7 148 44 280 82 318 93 507 150
513 157 3 3 10 5 16 5 6 0 6 -3 1 -9z m120 -337 c-53 -187 -98 -345 -101 -352
-4 -13 -66 17 -232 110 -18 10 -60 32 -92 48 l-60 30 103 89 c56 49 185 163
287 254 101 91 186 164 188 163 2 -2 -40 -156 -93 -342z m-75 283 c0 -2 -41
-39 -92 -83 -173 -149 -353 -306 -383 -334 -16 -15 -65 -75 -108 -134 -43 -59
-80 -106 -82 -104 -12 12 20 281 34 289 464 275 631 372 631 366z m-440 -516
c0 -11 -72 -72 -78 -66 -7 7 50 75 64 75 8 0 14 -4 14 -9z"/>
<path d="M2721 2851 c-57 -16 -52 -73 7 -79 42 -4 109 15 116 34 17 45 -44 67
-123 45z"/>
<path d="M2481 2821 c-105 -12 -98 -74 8 -79 69 -3 91 7 91 44 0 19 -29 49
-42 42 -2 -1 -27 -4 -57 -7z"/>
<path d="M2151 2796 c-34 -40 -11 -61 68 -61 81 0 108 16 85 53 -15 23 -135
30 -153 8z"/>
<path d="M1886 2774 c-38 -38 -15 -64 56 -64 86 0 124 30 86 68 -18 18 -123
15 -142 -4z"/>
<path d="M1651 2751 c-33 -9 -49 -36 -35 -58 21 -33 148 -19 159 18 14 42 -46
62 -124 40z"/>
<path d="M1415 2692 c-55 -19 -72 -55 -40 -82 25 -21 133 15 141 47 13 51 -21
63 -101 35z"/>
<path d="M1170 2597 c-55 -27 -71 -81 -27 -92 41 -11 137 46 137 80 0 2 -7 11
-16 19 -20 21 -40 19 -94 -7z"/>
<path d="M951 2474 c-54 -27 -74 -61 -51 -89 18 -21 37 -19 86 10 100 59 68
130 -35 79z"/>
<path d="M1867 2290 l-218 -140 -234 0 c-206 0 -235 -2 -243 -16 -5 -9 -7 -79
-4 -154 l5 -138 -62 -39 c-176 -109 -359 -233 -365 -248 -11 -30 -7 -1384 5
-1407 27 -49 -14 -48 1366 -48 1270 0 1288 0 1321 20 18 11 37 31 41 44 6 13
9 322 8 704 l-2 682 -25 23 c-14 13 -97 70 -185 127 -88 56 -175 112 -192 124
l-33 21 0 146 c0 125 -2 148 -16 153 -9 3 -120 6 -247 6 l-232 1 -215 139
c-118 77 -224 140 -235 140 -11 0 -118 -63 -238 -140z m340 -12 c54 -35 120
-77 148 -95 l50 -33 -300 0 -300 0 95 61 c52 33 118 76 145 94 63 43 49 45
162 -27z m765 -525 l3 -318 29 -3 c46 -6 49 6 47 163 -2 119 0 145 11 139 72
-45 299 -196 296 -198 -1 -2 -176 -119 -388 -261 -212 -142 -492 -330 -623
-418 -212 -142 -241 -158 -260 -148 -12 6 -62 39 -112 74 -133 92 -585 400
-862 586 -134 90 -243 167 -243 172 0 4 9 13 21 19 11 6 75 47 141 90 67 44
125 77 130 74 5 -3 8 -75 7 -159 -1 -166 1 -175 35 -175 45 0 46 5 46 352 l0
328 860 0 860 0 2 -317z m-1555 -696 c133 -89 241 -165 240 -169 -1 -3 -90
-73 -197 -154 -284 -215 -434 -329 -530 -404 -47 -37 -91 -70 -97 -74 -10 -6
-13 66 -13 347 l0 354 39 -19 c60 -30 96 -22 96 21 0 32 -3 35 -53 52 -29 10
-59 16 -67 12 -13 -4 -15 26 -15 216 l0 221 178 -120 c97 -66 286 -194 419
-283z m1983 -208 l0 -601 -24 19 c-13 10 -118 90 -232 179 -115 88 -293 224
-396 301 -168 127 -185 143 -170 155 9 8 114 79 232 158 236 158 473 318 534
362 21 15 43 28 48 28 4 0 8 -270 8 -601z m-795 -102 c135 -104 348 -267 570
-435 83 -62 151 -116 153 -120 2 -7 -2427 -6 -2433 0 -2 2 72 59 163 128 238
177 580 438 626 477 22 18 45 33 53 33 7 0 87 -52 179 -115 92 -63 176 -115
188 -115 12 0 100 54 196 119 96 65 177 119 180 120 3 0 59 -41 125 -92z"/>
<path d="M1532 1848 c-15 -15 -16 -55 -1 -63 6 -4 256 -8 556 -9 522 -1 546 0
558 18 14 19 10 45 -9 58 -20 14 -1090 10 -1104 -4z"/>
<path d="M1524 1606 c-3 -8 -4 -25 -2 -38 l3 -23 449 0 c417 0 450 1 460 18 8
12 8 22 0 35 -16 24 -901 32 -910 8z"/>
<path d="M1527 1373 c-11 -11 -8 -48 5 -61 9 -9 77 -12 245 -12 253 0 263 2
242 58 -8 22 -9 22 -247 22 -131 0 -242 -3 -245 -7z"/>
<path d="M1068 939 c-48 -27 -8 -82 69 -95 70 -11 90 68 22 86 -63 17 -75 18
-91 9z"/>
<path d="M1296 875 c-38 -38 4 -77 77 -73 49 3 52 5 55 32 5 37 -3 43 -64 51
-40 5 -55 3 -68 -10z"/>
<path d="M727 2305 c-48 -41 -50 -88 -5 -93 50 -6 125 81 98 113 -20 24 -52
17 -93 -20z"/>
<path d="M556 2116 c-37 -45 -45 -73 -24 -94 41 -41 145 78 108 123 -21 26
-47 17 -84 -29z"/>
<path d="M430 1908 c-43 -71 -33 -140 19 -123 21 6 61 82 61 114 0 48 -53 54
-80 9z"/>
<path d="M361 1676 c-35 -42 -22 -146 18 -146 39 1 69 85 50 139 -10 24 -50
29 -68 7z"/>
<path d="M382 1428 c-28 -28 4 -134 44 -144 54 -14 67 32 31 106 -23 47 -52
61 -75 38z"/>
<path d="M500 1201 c-20 -39 -14 -48 98 -153 43 -41 89 -50 112 -23 20 24 1
56 -46 76 -25 11 -44 27 -44 35 0 23 -65 84 -89 84 -11 0 -25 -9 -31 -19z"/>
</g>
</svg>
